<svg width="60" height="48" viewBox="0 0 60 48" fill="none" xmlns="http://www.w3.org/2000/svg">
<path fill-rule="evenodd" clip-rule="evenodd" d="M31.0484 24.3124C31.2526 24.6025 31.2714 24.9568 31.1295 25.241C31.1272 25.2461 31.1249 25.2511 31.1225 25.2562C30.9005 25.7275 30.3417 25.9298 29.8745 25.7079C28.2043 24.9146 27.1689 24.5768 26.402 24.5559C25.7342 24.5378 25.1928 24.7592 24.4891 25.421C24.1826 25.7093 23.7359 25.7515 23.3899 25.5555C23.1933 25.4681 23.0298 25.3135 22.9383 25.1057C22.4284 23.9474 22.6836 22.722 23.2907 21.4322C23.8723 20.1965 24.8571 18.7346 26.1139 16.9615C26.2071 16.6803 26.4417 16.4541 26.7614 16.3786C26.8498 16.3577 26.9389 16.3497 27.0266 16.3534C27.2173 16.3455 27.41 16.3926 27.5775 16.5001C27.8238 16.6582 27.9627 16.9128 27.9795 17.182C29.0019 20.6512 29.6056 22.2631 31.0484 24.3124ZM26.4591 22.6699C25.8021 22.6521 25.2214 22.7754 24.684 23.0185C24.7559 22.7625 24.8668 22.4716 25.0243 22.137C25.3809 21.3793 25.9339 20.4862 26.6817 19.3872C27.1242 20.7793 27.5402 21.8946 28.0642 22.9481C27.4932 22.7807 26.9625 22.6836 26.4591 22.6699Z" fill="url(#paint0_linear_43_85)"/>
<path fill-rule="evenodd" clip-rule="evenodd" d="M45.498 37.3409C45.7604 37.5936 45.9163 37.9163 45.9643 38.2522C46.0901 38.6833 46.0325 39.1654 45.7657 39.5685C45.2875 40.2911 44.3183 40.4863 43.601 40.0046C36.1253 34.9846 31.1359 32.6564 27.2252 32.5538C23.5462 32.4572 20.4758 34.3484 16.8187 39.0672C16.2945 39.7436 15.3306 39.8705 14.6521 39.3579C14.3119 39.1547 14.0477 38.822 13.9389 38.4063C12.7317 33.7943 13.8663 28.7959 16.4563 22.873C19.0233 17.0025 23.1589 9.92907 28.3512 1.04814L28.4785 0.830406C28.6747 0.462502 29.0135 0.177728 29.4307 0.0597878C29.8265 -0.0531186 30.2658 -0.00916721 30.6483 0.217734C31.1046 0.488418 31.374 0.9565 31.4126 1.45077C32.7478 11.9319 34.2463 18.9305 36.4081 24.289C38.5531 29.6057 41.3784 33.374 45.498 37.3409ZM27.3065 29.4102C23.1379 29.3007 19.7802 31.1363 16.578 34.5206C16.5839 31.6401 17.4946 28.2999 19.3134 24.1406C21.4437 19.2688 24.7179 13.49 28.9198 6.27712C30.1265 14.5108 31.5371 20.5682 33.5158 25.4729C34.5726 28.0923 35.7856 30.3689 37.1987 32.4642C33.4791 30.5463 30.2551 29.4875 27.3065 29.4102Z" fill="url(#paint1_linear_43_85)"/>
<path fill-rule="evenodd" clip-rule="evenodd" d="M47.3771 23.5691C48.0686 22.5693 49.6263 23.045 49.6503 24.2633L49.7051 27.0496L52.3529 27.8581C53.5106 28.2116 53.5428 29.8509 52.3999 30.2503L51.856 30.4404C54.0398 31.5765 55.7588 32.6806 57.0375 33.7603C58.4466 34.9501 59.4557 36.2235 59.836 37.6074C60.2454 39.0971 59.8619 40.4721 58.98 41.5986C58.1489 42.6602 56.8882 43.4977 55.4578 44.1755C52.583 45.5378 48.4753 46.5058 43.8913 47.1278C39.2771 47.754 34.064 48.0444 28.9093 47.9945C23.7561 47.9447 18.6273 47.5544 14.1846 46.8065C9.78823 46.0663 5.89503 44.9496 3.33695 43.3506C2.05342 42.5482 0.952995 41.5303 0.389431 40.2266C-0.207116 38.8466 -0.105795 37.3718 0.607583 35.939C1.29143 34.5656 2.53219 33.2269 4.24451 31.8974C5.97206 30.5562 8.27212 29.1537 11.1973 27.6819C11.9685 27.2939 12.906 27.6091 13.2913 28.386C13.6765 29.1628 13.3636 30.1072 12.5923 30.4952C9.77601 31.9122 7.66568 33.2117 6.15043 34.3881C4.61997 35.5764 3.78553 36.571 3.39827 37.3488C3.04053 38.0673 3.07483 38.5617 3.25183 38.9712C3.46181 39.4569 3.97551 40.0487 4.98316 40.6786C7.00744 41.944 10.4048 42.9818 14.6993 43.7048C18.9474 44.42 23.9095 44.8013 28.9393 44.85C33.9676 44.8986 39.0296 44.6145 43.4744 44.0113C47.9495 43.404 51.6848 42.4881 54.1289 41.3299C55.358 40.7475 56.1258 40.1658 56.5286 39.6513C56.8806 39.2017 56.9364 38.844 56.8272 38.4463C56.6888 37.9429 56.2211 37.1744 55.0319 36.1702C53.8853 35.202 52.1889 34.1165 49.8207 32.9264L49.8409 33.9502C49.8648 35.1685 48.3271 35.7059 47.5968 34.7345L45.9265 32.5127L43.3126 33.4263C42.1697 33.8257 41.187 32.5187 41.8786 31.5188L43.4602 29.2322L41.7899 27.0104C41.0596 26.039 41.99 24.6938 43.1477 25.0473L45.7955 25.8558L47.3771 23.5691ZM47.8155 26.2359L47.0731 27.3093C46.7639 27.7564 46.2039 27.9521 45.6862 27.794L44.4433 27.4145L45.2274 28.4574C45.554 28.8918 45.5657 29.4887 45.2565 29.9358L44.514 31.0092L45.741 30.5804C46.2521 30.4017 46.8193 30.5749 47.1459 31.0094L47.93 32.0523L47.9042 30.7444C47.8935 30.1995 48.2323 29.7097 48.7434 29.5311L49.9704 29.1022L48.7275 28.7227C48.2098 28.5646 47.852 28.0887 47.8413 27.5439L47.8155 26.2359Z" fill="url(#paint2_linear_43_85)"/>
<defs>
<linearGradient id="paint0_linear_43_85" x1="34.9663" y1="5.89631" x2="-13.5389" y2="83.6485" gradientUnits="userSpaceOnUse">
<stop stop-color="#7339AB"/>
<stop offset="1" stop-color="#A951FF"/>
</linearGradient>
<linearGradient id="paint1_linear_43_85" x1="34.9663" y1="5.89631" x2="-13.5389" y2="83.6485" gradientUnits="userSpaceOnUse">
<stop stop-color="#7339AB"/>
<stop offset="1" stop-color="#A951FF"/>
</linearGradient>
<linearGradient id="paint2_linear_43_85" x1="34.9663" y1="5.89631" x2="-13.5389" y2="83.6485" gradientUnits="userSpaceOnUse">
<stop stop-color="#7339AB"/>
<stop offset="1" stop-color="#A951FF"/>
</linearGradient>
</defs>
</svg>
