<svg width="430" height="598" viewBox="0 0 430 598" fill="none" xmlns="http://www.w3.org/2000/svg">
<g clip-path="url(#clip0_729_38)">
<path d="M154.017 133.647C149.911 135.211 145.718 136.537 141.46 137.619C135.834 138.99 132.658 139.625 127.228 137.518C127.038 137.444 126.856 137.371 126.684 137.299C116.392 132.923 107.595 125.65 101.362 116.364C95.1294 107.079 91.7305 96.1818 91.5791 84.9997C91.5519 84.6161 91.5519 84.2128 91.5519 83.8193C91.5466 81.9242 91.6372 80.0299 91.8233 78.1439C92.0613 75.5748 92.4722 73.0247 93.0535 70.511L92.9992 70.5012C88.6032 66.006 86.9117 59.8485 87.4725 53.6616C87.8567 49.4671 89.1879 45.4146 91.3658 41.8093C93.5437 38.204 96.5114 35.14 100.045 32.8483C105.584 29.3661 111.829 27.1618 118.326 26.3957C120.071 26.1946 121.825 26.0928 123.581 26.0908H140.08C143.487 25.293 146.949 24.7473 150.437 24.458H150.464C183.669 21.7039 209.855 43.7172 207.413 70.5011C207.395 70.5307 207.368 70.5601 207.35 70.5897C206.644 71.7405 206.02 72.8323 205.468 73.8749C204.935 74.8487 204.482 75.7832 204.093 76.6684C201.063 83.5144 215.463 189.73 210.298 191.343C207.359 192.258 195.509 113.22 197.635 128.249C200.312 147.105 169.315 127.992 154.017 133.647Z" fill="#2F2E41"/>
<path d="M204.039 325.654L250.068 423.714L73.0049 405.781L109.966 311.645L204.039 325.654Z" fill="#FFB6B6"/>
<path d="M296.439 522.26C265.648 532.509 233.201 536.855 200.799 535.07L186.709 512.22C186.709 512.22 186.119 520.73 185.239 533.74C169.814 531.953 154.591 528.725 139.769 524.1C111.659 515.31 85.3086 501.69 58.5986 489.13C53.1886 456.88 51.1586 407.15 81.0686 378.2L242.059 407.7C242.059 407.7 267.889 427.02 260.979 433.94C254.069 440.85 252.999 439.78 257.539 444.32C262.079 448.86 271.889 454.93 271.989 458.9C272.029 460.45 283.039 488.56 296.439 522.26Z" fill="#2F2E41"/>
<path d="M175.926 136.167L137.032 138.88L111.893 163.172L103.088 164.744C95.1744 166.155 88.0534 170.421 83.0757 176.733C78.0979 183.045 75.6095 190.964 76.0822 198.989C77.8932 229.672 81.9481 275.517 90.423 290.391C103.564 313.454 114.419 306.218 103.564 313.454C92.7098 320.69 85.4226 315.004 90.423 326.44C95.4234 337.876 83.6646 352.545 83.6646 352.545L78.9836 357.226L83.9483 359.261L242.145 379.845C242.145 379.845 228.466 318.343 237.021 303.235C245.575 288.127 266.317 242.459 247.805 224.589L229.705 160.895L198.571 151.713L175.926 136.167Z" fill="#A963FF"/>
<path d="M411.374 388.589C408.771 388.506 406.217 387.859 403.889 386.692C401.561 385.526 399.513 383.867 397.889 381.832C396.265 379.796 395.102 377.432 394.481 374.903C393.861 372.374 393.797 369.74 394.294 367.183L320.087 316.928L328.942 292.985L416.641 353.318C420.882 354.475 424.551 357.148 426.953 360.829C429.355 364.511 430.323 368.946 429.674 373.293C429.024 377.641 426.803 381.599 423.43 384.418C420.057 387.237 415.768 388.721 411.374 388.589V388.589Z" fill="#FFB6B6"/>
<path d="M201.777 157.887L190.994 162.157L248.516 274.5L367.595 355.669L384.76 326.657L294.116 248.363L257.826 178.765C252.719 168.97 244.163 161.415 233.812 157.559C223.461 153.704 212.048 153.82 201.777 157.887Z" fill="#A963FF"/>
<path d="M154.455 126.286C176.025 126.286 193.511 108.8 193.511 87.2306C193.511 65.6607 176.025 48.1748 154.455 48.1748C132.885 48.1748 115.399 65.6607 115.399 87.2306C115.399 108.8 132.885 126.286 154.455 126.286Z" fill="#FFB6B6"/>
<path d="M188.418 70.7149C187.767 71.0585 187.124 71.3751 186.473 71.6917C185.795 72.0173 185.116 72.343 184.429 72.6505C171.358 78.5751 160.712 79.2355 154.254 70.7149C154.077 66.2321 153.068 61.8214 151.278 57.7077C151.594 62.3048 150.383 66.8775 147.832 70.7149H134.825C121.428 79.6063 114.554 87.7742 123.853 116.963C124.459 118.881 128.61 187.01 129.795 192.247C109.516 184.468 92.0223 101.876 91.5791 80.1129C91.5519 79.7601 91.5519 79.3893 91.5519 79.0274C91.5466 77.2841 91.6373 75.5417 91.8233 73.8083C92.062 71.4418 92.4731 69.0958 93.0535 66.7892L92.9992 66.7801C90.9358 64.8075 89.3618 62.3802 88.4023 59.6918C87.4428 57.0033 87.1244 54.1279 87.4725 51.2946C90.8745 46.8402 95.0845 43.0659 99.8826 40.1689C104.246 38.0562 108.793 36.3485 113.469 35.0674C113.586 35.0403 113.686 35.0131 113.803 34.986C115.232 34.597 116.698 34.2443 118.163 33.9367C121.183 33.3035 124.236 32.8414 127.308 32.5528C127.534 32.5438 127.751 32.5256 127.95 32.5256C129.179 32.5264 130.385 32.8576 131.442 33.4844C131.451 33.4844 131.451 33.4935 131.469 33.4935C132.484 34.1002 133.326 34.9582 133.914 35.9848C134.502 37.0113 134.815 38.1719 134.825 39.3548H149.315C149.849 39.3548 150.382 39.3729 150.916 39.4C171.096 40.205 187.314 48.8343 188.355 68.6706C188.4 69.3581 188.418 70.0274 188.418 70.7149Z" fill="#2F2E41"/>
<path d="M102.747 72.2851C116.958 72.2851 128.477 60.7653 128.477 46.5549C128.477 32.3445 116.958 20.8247 102.747 20.8247C88.5369 20.8247 77.0171 32.3445 77.0171 46.5549C77.0171 60.7653 88.5369 72.2851 102.747 72.2851Z" fill="#2F2E41"/>
<path d="M138.072 34.6538C135.149 48.5603 120.727 56.8776 106.93 53.4753C100.304 51.8415 94.599 47.6425 91.0693 41.8022C87.5395 35.962 86.4745 28.9587 88.1083 22.3331C91.5106 8.53601 108.255 12.5136 119.25 3.51162C134.805 -9.22295 142.014 15.8998 138.072 34.6538Z" fill="#2F2E41"/>
<path d="M80.9031 421.756C102.833 332.329 146.283 255.465 218.244 195.242C221.029 190.661 225.518 187.371 230.725 186.095C235.932 184.819 241.433 185.66 246.021 188.435L417.09 292.157C421.671 294.942 424.961 299.431 426.237 304.638C427.513 309.846 426.672 315.347 423.897 319.934C396.431 411.697 355.293 491.322 286.556 546.449C283.772 551.03 279.283 554.32 274.076 555.596C268.868 556.872 263.367 556.031 258.779 553.256L87.711 449.534C83.1295 446.749 79.8398 442.26 78.5635 437.053C77.2872 431.845 78.1286 426.344 80.9031 421.756V421.756Z" fill="#F2F2F2"/>
<path opacity="0.2" d="M111.309 451.895C106.728 449.11 103.438 444.621 102.162 439.414C100.885 434.206 101.727 428.705 104.501 424.117C126.431 334.69 169.882 257.825 241.842 197.603C243.686 194.604 246.289 192.145 249.388 190.476L246.021 188.434C241.434 185.66 235.933 184.818 230.725 186.095C225.518 187.371 221.029 190.66 218.244 195.242C146.284 255.464 102.833 332.328 80.9035 421.756C78.1289 426.344 77.2874 431.845 78.5637 437.052C79.8399 442.26 83.1296 446.748 87.7111 449.533L258.779 553.256C261.824 555.088 265.299 556.083 268.852 556.139C272.405 556.195 275.91 555.311 279.011 553.576L111.309 451.895Z" fill="black"/>
<path d="M311.928 401.931L197.1 332.743C195.275 331.64 193.963 329.859 193.451 327.79C192.939 325.72 193.27 323.533 194.37 321.707C195.47 319.881 197.25 318.567 199.318 318.052C201.387 317.538 203.575 317.865 205.402 318.963L320.231 388.152C322.051 389.256 323.359 391.037 323.868 393.104C324.377 395.171 324.046 397.356 322.947 399.18C321.849 401.003 320.072 402.316 318.006 402.832C315.941 403.348 313.755 403.024 311.928 401.931L311.928 401.931Z" fill="white"/>
<path d="M245.128 310.18L219.866 294.959C218.035 293.863 216.714 292.086 216.194 290.017C215.674 287.948 215.997 285.757 217.093 283.926C218.188 282.095 219.965 280.775 222.034 280.255C224.103 279.735 226.294 280.058 228.125 281.153L228.169 281.179L253.431 296.401C255.251 297.505 256.56 299.286 257.069 301.353C257.578 303.421 257.248 305.606 256.149 307.429C255.05 309.253 253.273 310.567 251.207 311.082C249.141 311.598 246.955 311.274 245.128 310.18V310.18Z" fill="white"/>
<path d="M293.678 432.22L178.849 363.032C177.023 361.932 175.708 360.152 175.193 358.083C174.678 356.014 175.006 353.825 176.104 351.998C177.202 350.17 178.981 348.854 181.049 348.337C183.118 347.82 185.307 348.146 187.135 349.242L187.152 349.252L301.981 418.441C303.801 419.545 305.108 421.326 305.617 423.393C306.127 425.46 305.796 427.645 304.697 429.468C303.598 431.292 301.821 432.605 299.756 433.121C297.691 433.637 295.505 433.313 293.678 432.22L293.678 432.22Z" fill="white"/>
<path d="M326.511 271.474C345.034 271.474 360.05 256.458 360.05 237.935C360.05 219.412 345.034 204.396 326.511 204.396C307.988 204.396 292.972 219.412 292.972 237.935C292.972 256.458 307.988 271.474 326.511 271.474Z" fill="#3F3D56"/>
<path d="M268.698 597.318C308.289 597.318 340.383 565.224 340.383 525.633C340.383 486.043 308.289 453.948 268.698 453.948C229.108 453.948 197.013 486.043 197.013 525.633C197.013 565.224 229.108 597.318 268.698 597.318Z" fill="white"/>
<path d="M268.698 598.319C254.323 598.319 240.27 594.056 228.317 586.069C216.364 578.082 207.047 566.73 201.546 553.449C196.045 540.168 194.605 525.553 197.41 511.454C200.214 497.354 207.137 484.403 217.302 474.238C227.467 464.072 240.418 457.15 254.518 454.345C268.617 451.541 283.232 452.98 296.513 458.481C309.795 463.982 321.147 473.299 329.133 485.252C337.12 497.204 341.383 511.257 341.383 525.633C341.362 544.904 333.697 563.379 320.07 577.005C306.444 590.632 287.969 598.297 268.698 598.319V598.319ZM268.698 454.948C254.718 454.948 241.052 459.094 229.428 466.861C217.804 474.628 208.744 485.668 203.394 498.584C198.044 511.5 196.644 525.712 199.371 539.424C202.099 553.135 208.831 565.73 218.717 575.616C228.602 585.501 241.197 592.233 254.909 594.96C268.62 597.688 282.833 596.288 295.749 590.938C308.665 585.588 319.704 576.528 327.471 564.904C335.238 553.28 339.383 539.613 339.383 525.633C339.362 506.893 331.908 488.926 318.657 475.675C305.405 462.423 287.439 454.97 268.698 454.948V454.948Z" fill="#3F3D56"/>
<path d="M91.5701 422.704C89.014 421.656 86.716 420.066 84.8349 418.043C82.9538 416.021 81.5345 413.613 80.6753 410.988C79.816 408.363 79.5373 405.582 79.8584 402.838C80.1794 400.095 81.0926 397.454 82.5348 395.098L27.4294 317.637L45.1076 297.127L109.884 389.607C113.67 392.33 116.324 396.346 117.346 400.895C118.368 405.444 117.685 410.21 115.428 414.29C113.17 418.37 109.495 421.479 105.098 423.03C100.7 424.581 95.8873 424.465 91.5701 422.704H91.5701Z" fill="#FFB6B6"/>
<path d="M92.8363 177.232C90.0484 175.592 86.7672 174.999 83.5816 175.56C80.396 176.12 77.5146 177.798 75.4546 180.292L1 284.421L70 382.421L97 353.421L55 287.421L110.818 234.275C115.405 224.227 116.106 212.835 112.785 202.3C109.464 191.764 102.357 182.834 92.8363 177.232V177.232Z" fill="#A963FF"/>
<g clip-path="url(#clip1_729_38)">
<path d="M323.799 323.518C324.666 324.033 325.702 324.182 326.678 323.932C327.655 323.683 328.492 323.056 329.006 322.189C329.521 321.323 329.67 320.287 329.42 319.311C329.171 318.334 328.544 317.497 327.677 316.982C326.811 316.468 325.775 316.319 324.799 316.568C323.822 316.818 322.985 317.445 322.47 318.311C321.956 319.178 321.807 320.214 322.056 321.19C322.306 322.167 322.933 323.004 323.799 323.518ZM345.347 331.884C344.833 332.751 343.995 333.378 343.018 333.627C342.042 333.877 341.006 333.728 340.14 333.214C339.273 332.699 338.646 331.862 338.397 330.885C338.147 329.909 338.296 328.873 338.811 328.006C339.325 327.14 340.162 326.513 341.139 326.263C342.115 326.014 343.151 326.163 344.018 326.677C344.884 327.192 345.511 328.029 345.761 329.006C346.01 329.982 345.861 331.018 345.347 331.884ZM336.068 347.985C335.571 348.055 335.068 347.925 334.667 347.625C334.265 347.325 333.999 346.879 333.925 346.383L333.921 346.367C333.873 346.127 333.812 345.889 333.739 345.654C333.502 344.893 333.187 344.159 332.8 343.462C331.817 341.686 329.997 339.346 326.644 337.357C323.291 335.368 320.364 334.886 318.324 334.877C317.526 334.871 316.729 334.946 315.946 335.101C315.704 335.149 315.465 335.209 315.229 335.281L315.214 335.285C314.98 335.372 314.731 335.412 314.481 335.402C314.232 335.392 313.987 335.334 313.76 335.229C313.534 335.125 313.33 334.977 313.16 334.794C312.991 334.61 312.859 334.396 312.772 334.162C312.686 333.927 312.646 333.679 312.656 333.429C312.665 333.18 312.724 332.935 312.828 332.708C312.933 332.481 313.081 332.277 313.264 332.108C313.447 331.938 313.662 331.807 313.896 331.72L314.562 333.502L313.894 331.723L313.896 331.72L313.905 331.721L313.915 331.718L313.943 331.708L314.024 331.676L314.288 331.595C314.503 331.532 314.806 331.452 315.187 331.377C315.951 331.22 317.025 331.071 318.341 331.079C320.987 331.089 324.589 331.719 328.583 334.089C332.573 336.456 334.852 339.311 336.126 341.631C336.765 342.788 337.148 343.797 337.376 344.537C337.492 344.922 337.588 345.312 337.663 345.706L337.679 345.791L337.684 345.82L337.684 345.834C337.684 345.834 337.684 345.843 335.804 346.106L337.684 345.843C337.753 346.341 337.622 346.846 337.319 347.248C337.016 347.65 336.566 347.915 336.068 347.985ZM346.512 303.856C339.578 299.741 331.294 298.55 323.482 300.544C315.67 302.538 308.97 307.554 304.856 314.488C300.741 321.422 299.55 329.706 301.544 337.518C303.538 345.33 308.554 352.03 315.488 356.144C322.422 360.259 330.706 361.45 338.518 359.456C346.33 357.462 353.03 352.446 357.145 345.512C361.259 338.578 362.45 330.294 360.456 322.482C358.462 314.67 353.446 307.97 346.512 303.856ZM308.124 316.427C309.906 313.423 312.263 310.799 315.059 308.706C317.856 306.612 321.037 305.09 324.422 304.226C327.806 303.362 331.328 303.174 334.786 303.671C338.243 304.168 341.569 305.341 344.573 307.124C347.577 308.906 350.201 311.263 352.294 314.059C354.388 316.856 355.91 320.037 356.774 323.422C357.638 326.806 357.826 330.328 357.329 333.785C356.832 337.243 355.659 340.569 353.876 343.573C350.277 349.64 344.414 354.029 337.578 355.774C330.743 357.518 323.494 356.476 317.427 352.876C311.36 349.277 306.971 343.414 305.226 336.578C303.482 329.743 304.524 322.494 308.124 316.427Z" fill="#2F2E41" fill-opacity="0.5"/>
</g>
<path d="M263.888 539.784C263.888 537.288 264.304 535.112 265.136 533.256C265.968 531.4 266.992 529.736 268.208 528.264C269.488 526.792 270.864 525.448 272.336 524.232C273.808 522.952 275.184 521.704 276.464 520.488C277.744 519.208 278.768 517.864 279.536 516.456C280.368 515.048 280.784 513.416 280.784 511.56C280.784 508.488 279.568 505.992 277.136 504.072C274.704 502.152 271.344 501.192 267.056 501.192C263.216 501.192 259.888 501.832 257.072 503.112C254.256 504.392 251.856 506.28 249.872 508.776L242.864 503.784C245.552 500.392 248.976 497.768 253.136 495.912C257.296 493.992 262.16 493.032 267.728 493.032C272.336 493.032 276.336 493.736 279.728 495.144C283.12 496.488 285.744 498.44 287.6 501C289.52 503.496 290.48 506.536 290.48 510.12C290.48 512.808 290.064 515.112 289.232 517.032C288.4 518.952 287.344 520.648 286.064 522.12C284.784 523.592 283.408 524.968 281.936 526.248C280.528 527.528 279.184 528.808 277.904 530.088C276.624 531.368 275.568 532.776 274.736 534.312C273.904 535.848 273.488 537.672 273.488 539.784H263.888ZM268.784 561.576C266.992 561.576 265.488 560.968 264.272 559.752C263.12 558.536 262.544 557.096 262.544 555.432C262.544 553.64 263.12 552.168 264.272 551.016C265.488 549.864 266.992 549.288 268.784 549.288C270.576 549.288 272.048 549.864 273.2 551.016C274.352 552.168 274.928 553.64 274.928 555.432C274.928 557.096 274.352 558.536 273.2 559.752C272.048 560.968 270.576 561.576 268.784 561.576Z" fill="#AD8ACE"/>
</g>
<defs>
<clipPath id="clip0_729_38">
<rect width="430" height="598" fill="white"/>
</clipPath>
<clipPath id="clip1_729_38">
<rect width="76" height="76" fill="white" transform="translate(317.709 277.929) rotate(30.6816)"/>
</clipPath>
</defs>
</svg>
