<svg width="146" height="146" viewBox="0 0 146 146" fill="none" xmlns="http://www.w3.org/2000/svg">
<path d="M73 146C113.317 146 146 113.317 146 73C146 32.6832 113.317 0 73 0C32.6832 0 0 32.6832 0 73C0 113.317 32.6832 146 73 146Z" fill="#F0F0F0"/>
<path d="M73 146C113.317 146 146 113.317 146 73C146 32.6832 113.317 0 73 0C32.6832 0 0 32.6832 0 73C0 113.317 32.6832 146 73 146Z" fill="#F0F0F0"/>
<path d="M73 84C86.2548 84 97 73.2548 97 60C97 46.7451 86.2548 36 73 36C59.7452 36 49 46.7451 49 60C49 73.2548 59.7452 84 73 84Z" fill="#A951FF" fill-opacity="0.7"/>
<path d="M109.155 97.8341C104.847 93.5357 90.2713 95.2439 90.2713 95.2439L51.7997 97.667C43.2674 98.2983 35.5803 105.131 32.7954 107.898C33.2406 108.334 33.696 108.761 34.1607 109.17C42.7101 116.768 53.4569 121.447 64.8439 122.529C76.2308 123.611 87.6664 121.039 97.4936 115.186C101.616 112.725 106.89 109.776 110.195 106.331C111.504 104.976 112.552 105.003 113.712 103.517C112.843 101.182 111.245 99.1894 109.155 97.8341V97.8341Z" fill="#A963FF"/>
</svg>
