<svg width="832" height="905" viewBox="0 0 832 905" fill="none" xmlns="http://www.w3.org/2000/svg">
<g clip-path="url(#clip0_803_3)">
<path d="M453.889 172.947H449.891V63.4019C449.891 46.5867 443.211 30.4602 431.321 18.57C419.43 6.67986 403.304 2.12175e-05 386.489 2.01908e-10H154.402C146.076 -2.10113e-05 137.831 1.6399 130.139 4.82612C122.447 8.01234 115.457 12.6825 109.57 18.5699C103.683 24.4573 99.0125 31.4466 95.8262 39.1389C92.64 46.8311 91 55.0756 91 63.4017V664.376C91 672.702 92.6399 680.947 95.8261 688.639C99.0124 696.331 103.683 703.321 109.57 709.208C115.457 715.095 122.447 719.766 130.139 722.952C137.831 726.138 146.076 727.778 154.402 727.778H386.488C403.304 727.778 419.43 721.098 431.32 709.208C443.211 697.318 449.89 681.191 449.89 664.376V250.923H453.889V172.947Z" fill="#E6E6E6"/>
<path d="M389.047 16.495H358.752C360.145 19.9106 360.677 23.6165 360.3 27.286C359.924 30.9556 358.651 34.4763 356.593 37.538C354.536 40.5997 351.757 43.1084 348.501 44.8431C345.246 46.5777 341.613 47.4852 337.925 47.4855H204.965C201.276 47.4852 197.644 46.5778 194.389 44.8431C191.133 43.1084 188.354 40.5997 186.297 37.538C184.239 34.4763 182.966 30.9556 182.589 27.286C182.213 23.6164 182.745 19.9105 184.138 16.4949H155.842C143.285 16.4949 131.242 21.4833 122.363 30.3627C113.483 39.2421 108.495 51.2852 108.495 63.8426V663.935C108.495 676.493 113.483 688.536 122.362 697.415C131.242 706.295 143.285 711.283 155.842 711.283H389.047C395.265 711.283 401.422 710.058 407.166 707.679C412.911 705.3 418.13 701.812 422.527 697.415C426.923 693.019 430.411 687.799 432.79 682.055C435.17 676.31 436.395 670.153 436.395 663.935V663.935V63.8427C436.395 57.6249 435.17 51.468 432.79 45.7235C430.411 39.979 426.923 34.7594 422.527 30.3627C418.13 25.9661 412.91 22.4785 407.166 20.0991C401.421 17.7196 395.265 16.4949 389.047 16.495V16.495Z" fill="white"/>
<path d="M417.151 487.819H137.533C136.16 487.817 134.844 487.271 133.873 486.3C132.902 485.33 132.356 484.014 132.354 482.641V413.28C132.356 411.907 132.902 410.591 133.873 409.62C134.844 408.649 136.16 408.103 137.533 408.102H417.151C418.524 408.103 419.84 408.649 420.811 409.62C421.782 410.591 422.328 411.907 422.33 413.28V482.642C422.328 484.014 421.781 485.33 420.811 486.301C419.84 487.271 418.524 487.817 417.151 487.819V487.819ZM137.533 410.173C136.709 410.174 135.919 410.501 135.336 411.084C134.754 411.666 134.426 412.456 134.426 413.28V482.642C134.426 483.466 134.754 484.255 135.336 484.838C135.919 485.42 136.709 485.748 137.533 485.749H417.151C417.975 485.748 418.765 485.42 419.348 484.838C419.93 484.255 420.258 483.466 420.258 482.642V413.28C420.258 412.456 419.93 411.666 419.348 411.084C418.765 410.501 417.975 410.174 417.151 410.173H137.533Z" fill="#E6E6E6"/>
<path d="M173.779 469.708C185.79 469.708 195.526 459.971 195.526 447.96C195.526 435.949 185.79 426.212 173.779 426.212C161.767 426.212 152.031 435.949 152.031 447.96C152.031 459.971 161.767 469.708 173.779 469.708Z" fill="#AD8ACE"/>
<path d="M224.006 433.462C223.055 433.478 222.149 433.866 221.482 434.545C220.815 435.223 220.441 436.135 220.441 437.086C220.441 438.037 220.815 438.95 221.482 439.628C222.149 440.306 223.055 440.695 224.006 440.711H394.884C395.845 440.729 396.775 440.365 397.467 439.699C398.16 439.032 398.56 438.118 398.578 437.157C398.597 436.195 398.233 435.266 397.566 434.573C396.9 433.88 395.985 433.481 395.024 433.462L395.003 433.462C394.964 433.461 394.924 433.461 394.884 433.462H224.006Z" fill="#AD8ACE"/>
<path d="M224.006 455.21C223.055 455.226 222.149 455.614 221.482 456.292C220.815 456.97 220.441 457.883 220.441 458.834C220.441 459.785 220.815 460.698 221.482 461.376C222.149 462.054 223.055 462.443 224.006 462.459H394.884C395.844 462.472 396.77 462.104 397.459 461.436C398.148 460.768 398.543 459.853 398.559 458.894C398.575 457.934 398.209 457.007 397.543 456.317C396.876 455.626 395.963 455.228 395.003 455.21C394.964 455.209 394.924 455.209 394.884 455.21H224.006Z" fill="#AD8ACE"/>
<path d="M417.151 603.809H137.533C136.16 603.807 134.844 603.261 133.873 602.29C132.902 601.32 132.356 600.004 132.354 598.631V529.27C132.356 527.897 132.902 526.581 133.873 525.61C134.844 524.639 136.16 524.093 137.533 524.092H417.151C418.524 524.093 419.84 524.639 420.811 525.61C421.782 526.581 422.328 527.897 422.33 529.27V598.632C422.328 600.004 421.781 601.32 420.811 602.291C419.84 603.261 418.524 603.807 417.151 603.809V603.809ZM137.533 526.163C136.709 526.164 135.919 526.491 135.336 527.074C134.754 527.656 134.426 528.446 134.426 529.27V598.632C134.426 599.456 134.754 600.245 135.336 600.828C135.919 601.41 136.709 601.738 137.533 601.739H417.151C417.975 601.738 418.765 601.41 419.348 600.828C419.93 600.245 420.258 599.456 420.258 598.632V529.27C420.258 528.446 419.93 527.656 419.348 527.074C418.765 526.491 417.975 526.164 417.151 526.163H137.533Z" fill="#E6E6E6"/>
<path d="M173.779 585.698C185.79 585.698 195.526 575.961 195.526 563.95C195.526 551.939 185.79 542.202 173.779 542.202C161.767 542.202 152.031 551.939 152.031 563.95C152.031 575.961 161.767 585.698 173.779 585.698Z" fill="#AD8ACE"/>
<path d="M224.006 549.452C223.055 549.468 222.149 549.857 221.482 550.535C220.815 551.213 220.441 552.125 220.441 553.076C220.441 554.027 220.815 554.94 221.482 555.618C222.149 556.296 223.055 556.685 224.006 556.701H394.884C395.844 556.714 396.77 556.346 397.459 555.678C398.148 555.01 398.543 554.095 398.559 553.136C398.575 552.176 398.209 551.249 397.543 550.559C396.876 549.868 395.963 549.47 395.003 549.452C394.964 549.451 394.924 549.451 394.884 549.452H224.006Z" fill="#AD8ACE"/>
<path d="M224.006 571.2C223.055 571.216 222.149 571.604 221.482 572.282C220.815 572.96 220.441 573.873 220.441 574.824C220.441 575.775 220.815 576.688 221.482 577.366C222.149 578.044 223.055 578.433 224.006 578.449H394.884C395.844 578.462 396.77 578.094 397.459 577.426C398.148 576.758 398.543 575.843 398.559 574.884C398.575 573.924 398.209 572.997 397.543 572.307C396.876 571.616 395.963 571.218 395.003 571.2C394.964 571.199 394.924 571.199 394.884 571.2H224.006Z" fill="#AD8ACE"/>
<path d="M271.457 343.884C245.375 343.895 220.357 333.544 201.906 315.109C183.456 296.674 173.084 271.664 173.073 245.582V245.5C173.073 245.294 173.073 245.077 173.085 244.871C173.385 190.992 217.517 147.115 271.457 147.115C297.551 147.112 322.576 157.474 341.029 175.923C359.481 194.371 369.85 219.395 369.853 245.488C369.856 271.581 359.493 296.606 341.045 315.059C322.596 333.512 297.573 343.88 271.48 343.883H271.457V343.884ZM271.457 149.184C246.03 149.241 221.652 159.329 203.62 177.258C185.589 195.186 175.36 219.506 175.157 244.933C175.146 245.153 175.146 245.333 175.146 245.497C175.144 264.548 180.791 283.172 191.374 299.014C201.956 314.856 216.998 327.204 234.598 334.497C252.199 341.79 271.566 343.7 290.252 339.985C308.937 336.271 326.102 327.099 339.575 313.629C353.048 300.16 362.224 282.997 365.943 264.313C369.662 245.628 367.757 226.26 360.469 208.658C353.18 191.056 340.836 176.01 324.997 165.424C309.158 154.838 290.535 149.186 271.483 149.184H271.457V149.184Z" fill="#E6E6E6"/>
<path d="M406.114 462.842C428.205 462.842 446.114 444.933 446.114 422.842C446.114 400.75 428.205 382.842 406.114 382.842C384.022 382.842 366.114 400.75 366.114 422.842C366.114 444.933 384.022 462.842 406.114 462.842Z" fill="white"/>
<path d="M392.222 440.838C392.153 440.838 392.085 440.837 392.016 440.836H370.516C367.788 440.793 365.186 439.679 363.272 437.735C361.357 435.791 360.284 433.172 360.283 430.444C360.282 427.715 361.353 425.096 363.266 423.15C365.179 421.205 367.779 420.089 370.507 420.043H392.026C392.131 420.042 392.246 420.042 392.359 420.043C395.104 420.081 397.722 421.203 399.643 423.163C401.564 425.124 402.632 427.764 402.614 430.509C402.595 433.254 401.493 435.88 399.546 437.815C397.599 439.75 394.967 440.836 392.222 440.838V440.838Z" fill="#AD8ACE"/>
<path d="M740.378 725.344H416.345V727.584H740.378V725.344Z" fill="#A951FF"/>
<path d="M436.31 535.731C436.055 535.335 435.844 534.913 435.68 534.472L430.516 520.645C429.915 519.03 429.98 517.243 430.695 515.675C431.41 514.107 432.718 512.887 434.332 512.282L549.574 469.25C551.189 468.649 552.977 468.713 554.544 469.428C556.112 470.143 557.332 471.451 557.937 473.065L563.1 486.893C563.398 487.692 563.537 488.543 563.507 489.396C563.476 490.249 563.279 491.088 562.924 491.864C562.57 492.641 562.066 493.34 561.442 493.922C560.817 494.504 560.084 494.957 559.284 495.255L444.043 538.287C442.656 538.805 441.133 538.834 439.727 538.369C438.321 537.904 437.115 536.973 436.31 535.731V535.731Z" fill="#F4F4F4"/>
<path d="M549.207 465.677L502.344 484.364C500.867 484.809 499.618 485.804 498.856 487.145C498.094 488.485 497.877 490.068 498.251 491.564L503.69 513.339C503.904 514.199 504.307 515.001 504.869 515.687C505.431 516.373 506.138 516.926 506.939 517.306C507.74 517.686 508.615 517.884 509.501 517.885C510.388 517.887 511.264 517.692 512.066 517.314L559.058 495.195C560.547 494.637 561.754 493.511 562.414 492.065C563.075 490.618 563.136 488.969 562.583 487.478L556.934 469.203C556.376 467.711 555.249 466.503 553.8 465.842C552.351 465.181 550.699 465.122 549.207 465.677V465.677Z" fill="#A951FF"/>
<path d="M634.97 601.339C633.498 601.508 632.013 601.17 630.76 600.381C629.507 599.591 628.561 598.398 628.077 596.999L587.963 480.71C587.685 479.903 587.568 479.049 587.62 478.197C587.671 477.345 587.89 476.511 588.264 475.744C588.638 474.976 589.159 474.29 589.798 473.724C590.437 473.158 591.181 472.724 591.988 472.445L605.941 467.632C607.571 467.071 609.356 467.18 610.906 467.935C612.455 468.689 613.642 470.028 614.205 471.657L654.319 587.947C654.879 589.577 654.77 591.362 654.015 592.911C653.261 594.461 651.923 595.647 650.294 596.211L636.342 601.024C635.897 601.178 635.437 601.283 634.97 601.339V601.339Z" fill="#F4F4F4"/>
<path d="M617.195 469.667L632.591 517.712C633.187 519.134 633.214 520.731 632.664 522.172C632.115 523.613 631.032 524.787 629.64 525.45L609.38 535.108C608.579 535.489 607.704 535.688 606.818 535.691C605.931 535.694 605.055 535.501 604.252 535.124C603.449 534.748 602.74 534.199 602.175 533.516C601.61 532.833 601.203 532.033 600.984 531.174L588.154 480.846C587.637 479.342 587.738 477.694 588.434 476.265C589.13 474.835 590.363 473.739 591.865 473.217L609.559 465.948C611.065 465.431 612.715 465.531 614.146 466.228C615.578 466.926 616.674 468.162 617.195 469.667V469.667Z" fill="#A951FF"/>
<path d="M570.58 726.003H555.82C554.097 726.001 552.445 725.316 551.226 724.097C550.008 722.879 549.322 721.226 549.32 719.503V596.489C549.322 594.765 550.008 593.113 551.226 591.895C552.445 590.676 554.097 589.991 555.82 589.989H570.58C572.303 589.991 573.955 590.676 575.174 591.895C576.392 593.113 577.078 594.765 577.08 596.489V719.503C577.078 721.226 576.392 722.879 575.174 724.097C573.955 725.316 572.303 726.001 570.58 726.003Z" fill="#A951FF"/>
<path d="M599.772 726.003H585.012C583.289 726.001 581.637 725.316 580.418 724.097C579.2 722.879 578.514 721.226 578.512 719.503V596.489C578.514 594.765 579.2 593.113 580.418 591.895C581.637 590.676 583.289 589.991 585.012 589.989H599.772C601.495 589.991 603.147 590.676 604.366 591.895C605.585 593.113 606.27 594.765 606.272 596.489V719.503C606.27 721.226 605.585 722.879 604.366 724.097C603.147 725.316 601.495 726.001 599.772 726.003Z" fill="#A951FF"/>
<path d="M611.936 610.951H544.873C543.017 610.948 541.238 610.21 539.926 608.898C538.613 607.586 537.875 605.806 537.873 603.951V495.006C537.873 484.257 542.143 473.947 549.744 466.346C557.345 458.745 567.655 454.475 578.404 454.475C589.154 454.475 599.463 458.745 607.064 466.346C614.665 473.947 618.936 484.257 618.936 495.006V603.951C618.933 605.806 618.195 607.586 616.883 608.898C615.571 610.21 613.791 610.948 611.936 610.951Z" fill="#3F3D56"/>
<path d="M622.03 637.6H588.03V445.445L588.662 445.618C598.237 448.246 606.686 453.943 612.714 461.834C618.741 469.725 622.014 479.375 622.03 489.305V637.6Z" fill="#A951FF"/>
<path d="M566.015 637.6H532.015V489.305C532.032 479.375 535.305 469.725 541.332 461.834C547.359 453.943 555.808 448.246 565.384 445.618L566.015 445.445V637.6Z" fill="#A951FF"/>
<path d="M577.897 431.94C607.455 431.94 631.416 407.978 631.416 378.421C631.416 348.863 607.455 324.901 577.897 324.901C548.339 324.901 524.378 348.863 524.378 378.421C524.378 407.978 548.339 431.94 577.897 431.94Z" fill="#F4F4F4"/>
<path d="M653.331 378.5C653.331 378.5 576.331 287.592 624.331 249.092C624.331 249.092 611.427 204.901 530.331 341.5L514.331 357.5C514.331 357.5 589.427 349.901 653.331 378.5Z" fill="#A951FF"/>
<path d="M564.964 382.852H554.192V384.852H564.964V382.852Z" fill="#A951FF"/>
<path d="M598.964 382.852H588.192V384.852H598.964V382.852Z" fill="#A951FF"/>
<path d="M458.571 540.833C457.127 541.503 455.477 541.571 453.983 541.024C452.489 540.477 451.273 539.359 450.603 537.915L416.092 463.531C415.423 462.088 415.354 460.438 415.901 458.943C416.448 457.449 417.567 456.234 419.01 455.564C420.453 454.894 422.104 454.826 423.598 455.373C425.092 455.92 426.308 457.038 426.978 458.481L461.489 532.865C462.158 534.308 462.227 535.959 461.68 537.453C461.133 538.947 460.014 540.163 458.571 540.833Z" fill="#424242"/>
<path d="M423.114 460.794C422.053 460.794 421.035 460.373 420.285 459.623C419.535 458.873 419.114 457.855 419.114 456.794V405.842H369.114C368.053 405.842 367.035 405.42 366.285 404.67C365.535 403.92 365.114 402.903 365.114 401.842C365.114 400.781 365.535 399.764 366.285 399.013C367.035 398.263 368.053 397.842 369.114 397.842H423.114C424.175 397.842 425.192 398.263 425.942 399.013C426.692 399.764 427.114 400.781 427.114 401.842V456.794C427.114 457.855 426.692 458.873 425.942 459.623C425.192 460.373 424.175 460.794 423.114 460.794V460.794Z" fill="#AD8ACE"/>
<path d="M424.06 466.449C415.448 470.444 405.845 471.796 396.465 470.334C387.085 468.872 378.349 464.661 371.362 458.234C364.375 451.806 359.451 443.452 357.212 434.226C354.973 425 355.521 415.318 358.785 406.403C362.049 397.488 367.884 389.742 375.55 384.143C383.217 378.544 392.372 375.344 401.857 374.949C411.343 374.553 420.732 376.979 428.839 381.919C436.945 386.86 443.405 394.094 447.4 402.705C452.743 414.255 453.286 427.453 448.911 439.403C444.535 451.353 435.598 461.08 424.06 466.449V466.449ZM388.707 390.251C382.248 393.247 376.823 398.092 373.118 404.172C369.412 410.252 367.593 417.294 367.89 424.408C368.187 431.522 370.586 438.388 374.785 444.138C378.984 449.888 384.794 454.264 391.48 456.712C398.166 459.16 405.428 459.571 412.347 457.892C419.267 456.213 425.533 452.52 430.353 447.279C435.174 442.039 438.332 435.487 439.429 428.452C440.525 421.417 439.511 414.215 436.515 407.756C432.488 399.102 425.193 392.399 416.231 389.118C407.268 385.836 397.37 386.243 388.707 390.251V390.251Z" fill="#424242"/>
<path d="M263.184 262.712C263.184 259.384 263.739 256.483 264.848 254.008C265.957 251.533 267.323 249.315 268.944 247.352C270.651 245.389 272.485 243.597 274.448 241.976C276.411 240.269 278.245 238.605 279.952 236.984C281.659 235.277 283.024 233.485 284.048 231.608C285.157 229.731 285.712 227.555 285.712 225.08C285.712 220.984 284.091 217.656 280.848 215.096C277.605 212.536 273.125 211.256 267.408 211.256C262.288 211.256 257.851 212.109 254.096 213.816C250.341 215.523 247.141 218.04 244.496 221.368L235.152 214.712C238.736 210.189 243.301 206.691 248.848 204.216C254.395 201.656 260.88 200.376 268.304 200.376C274.448 200.376 279.781 201.315 284.304 203.192C288.827 204.984 292.325 207.587 294.8 211C297.36 214.328 298.64 218.381 298.64 223.16C298.64 226.744 298.085 229.816 296.976 232.376C295.867 234.936 294.459 237.197 292.752 239.16C291.045 241.123 289.211 242.957 287.248 244.664C285.371 246.371 283.579 248.077 281.872 249.784C280.165 251.491 278.757 253.368 277.648 255.416C276.539 257.464 275.984 259.896 275.984 262.712H263.184ZM269.712 291.768C267.323 291.768 265.317 290.957 263.696 289.336C262.16 287.715 261.392 285.795 261.392 283.576C261.392 281.187 262.16 279.224 263.696 277.688C265.317 276.152 267.323 275.384 269.712 275.384C272.101 275.384 274.064 276.152 275.6 277.688C277.136 279.224 277.904 281.187 277.904 283.576C277.904 285.795 277.136 287.715 275.6 289.336C274.064 290.957 272.101 291.768 269.712 291.768Z" fill="#AD8ACE"/>
</g>
<path d="M152.312 889V844.2H160.888L187.32 876.456H183.16V844.2H193.4V889H184.888L158.392 856.744H162.552V889H152.312ZM219.68 889.512C216.01 889.512 212.746 888.744 209.888 887.208C207.072 885.672 204.832 883.581 203.168 880.936C201.546 878.248 200.736 875.197 200.736 871.784C200.736 868.328 201.546 865.277 203.168 862.632C204.832 859.944 207.072 857.853 209.888 856.36C212.746 854.824 216.01 854.056 219.68 854.056C223.306 854.056 226.549 854.824 229.408 856.36C232.266 857.853 234.506 859.923 236.128 862.568C237.749 865.213 238.56 868.285 238.56 871.784C238.56 875.197 237.749 878.248 236.128 880.936C234.506 883.581 232.266 885.672 229.408 887.208C226.549 888.744 223.306 889.512 219.68 889.512ZM219.68 881.32C221.344 881.32 222.837 880.936 224.16 880.168C225.482 879.4 226.528 878.312 227.296 876.904C228.064 875.453 228.448 873.747 228.448 871.784C228.448 869.779 228.064 868.072 227.296 866.664C226.528 865.256 225.482 864.168 224.16 863.4C222.837 862.632 221.344 862.248 219.68 862.248C218.016 862.248 216.522 862.632 215.2 863.4C213.877 864.168 212.81 865.256 212 866.664C211.232 868.072 210.848 869.779 210.848 871.784C210.848 873.747 211.232 875.453 212 876.904C212.81 878.312 213.877 879.4 215.2 880.168C216.522 880.936 218.016 881.32 219.68 881.32ZM263.358 889V854.568H272.894V864.296L271.55 861.48C272.574 859.048 274.217 857.213 276.478 855.976C278.739 854.696 281.491 854.056 284.734 854.056V863.272C284.307 863.229 283.923 863.208 283.582 863.208C283.241 863.165 282.878 863.144 282.494 863.144C279.763 863.144 277.545 863.933 275.838 865.512C274.174 867.048 273.342 869.459 273.342 872.744V889H263.358ZM307.509 889.512C303.583 889.512 300.127 888.744 297.141 887.208C294.197 885.672 291.914 883.581 290.293 880.936C288.671 878.248 287.861 875.197 287.861 871.784C287.861 868.328 288.65 865.277 290.229 862.632C291.85 859.944 294.047 857.853 296.821 856.36C299.594 854.824 302.73 854.056 306.229 854.056C309.599 854.056 312.629 854.781 315.317 856.232C318.047 857.64 320.202 859.688 321.781 862.376C323.359 865.021 324.149 868.2 324.149 871.912C324.149 872.296 324.127 872.744 324.085 873.256C324.042 873.725 323.999 874.173 323.957 874.6H295.989V868.776H318.708L314.869 870.504C314.869 868.712 314.506 867.155 313.781 865.832C313.055 864.509 312.053 863.485 310.773 862.76C309.493 861.992 307.999 861.608 306.293 861.608C304.586 861.608 303.071 861.992 301.749 862.76C300.469 863.485 299.466 864.531 298.741 865.896C298.015 867.219 297.653 868.797 297.653 870.632V872.168C297.653 874.045 298.058 875.709 298.869 877.16C299.722 878.568 300.895 879.656 302.389 880.424C303.925 881.149 305.717 881.512 307.765 881.512C309.599 881.512 311.199 881.235 312.565 880.68C313.973 880.125 315.253 879.293 316.405 878.184L321.717 883.944C320.138 885.736 318.154 887.123 315.765 888.104C313.375 889.043 310.623 889.512 307.509 889.512ZM342.38 889.512C339.436 889.512 336.598 889.171 333.868 888.488C331.18 887.763 329.046 886.867 327.468 885.8L330.796 878.632C332.374 879.613 334.23 880.424 336.364 881.064C338.54 881.661 340.673 881.96 342.764 881.96C345.068 881.96 346.689 881.683 347.628 881.128C348.609 880.573 349.1 879.805 349.1 878.824C349.1 878.013 348.716 877.416 347.948 877.032C347.222 876.605 346.241 876.285 345.003 876.072C343.766 875.859 342.401 875.645 340.908 875.432C339.457 875.219 337.985 874.941 336.492 874.6C334.998 874.216 333.633 873.661 332.396 872.936C331.158 872.211 330.156 871.229 329.388 869.992C328.662 868.755 328.299 867.155 328.299 865.192C328.299 863.016 328.918 861.096 330.156 859.432C331.436 857.768 333.27 856.467 335.66 855.528C338.049 854.547 340.908 854.056 344.236 854.056C346.582 854.056 348.972 854.312 351.404 854.824C353.836 855.336 355.862 856.083 357.484 857.064L354.156 864.168C352.492 863.187 350.806 862.525 349.1 862.184C347.436 861.8 345.814 861.608 344.236 861.608C342.017 861.608 340.396 861.907 339.372 862.504C338.348 863.101 337.836 863.869 337.836 864.808C337.836 865.661 338.198 866.301 338.924 866.728C339.692 867.155 340.694 867.496 341.932 867.752C343.169 868.008 344.513 868.243 345.964 868.456C347.457 868.627 348.95 868.904 350.444 869.288C351.937 869.672 353.281 870.227 354.476 870.952C355.713 871.635 356.716 872.595 357.484 873.832C358.252 875.027 358.636 876.605 358.636 878.568C358.636 880.701 357.996 882.6 356.716 884.264C355.436 885.885 353.58 887.165 351.148 888.104C348.758 889.043 345.836 889.512 342.38 889.512ZM379.324 889.512C376.465 889.512 373.905 888.957 371.644 887.848C369.425 886.739 367.697 885.053 366.46 882.792C365.222 880.488 364.604 877.565 364.604 874.024V854.568H374.588V872.552C374.588 875.411 375.185 877.523 376.38 878.888C377.617 880.211 379.345 880.872 381.564 880.872C383.1 880.872 384.465 880.552 385.66 879.912C386.854 879.229 387.793 878.205 388.476 876.84C389.158 875.432 389.5 873.683 389.5 871.592V854.568H399.484V889H390.012V879.528L391.74 882.28C390.588 884.669 388.881 886.483 386.62 887.72C384.401 888.915 381.969 889.512 379.324 889.512ZM408.733 889V841.512H418.717V889H408.733ZM444.626 889.512C440.572 889.512 437.415 888.488 435.154 886.44C432.892 884.349 431.762 881.256 431.762 877.16V846.952H441.746V877.032C441.746 878.483 442.13 879.613 442.898 880.424C443.666 881.192 444.711 881.576 446.034 881.576C447.612 881.576 448.956 881.149 450.066 880.296L452.754 887.336C451.73 888.061 450.492 888.616 449.042 889C447.634 889.341 446.162 889.512 444.626 889.512ZM426.45 863.016V855.336H450.322V863.016H426.45ZM469.942 889.512C466.998 889.512 464.161 889.171 461.43 888.488C458.742 887.763 456.609 886.867 455.03 885.8L458.358 878.632C459.937 879.613 461.793 880.424 463.926 881.064C466.102 881.661 468.235 881.96 470.326 881.96C472.63 881.96 474.251 881.683 475.19 881.128C476.171 880.573 476.662 879.805 476.662 878.824C476.662 878.013 476.278 877.416 475.51 877.032C474.785 876.605 473.803 876.285 472.566 876.072C471.329 875.859 469.963 875.645 468.47 875.432C467.019 875.219 465.547 874.941 464.054 874.6C462.561 874.216 461.195 873.661 459.958 872.936C458.721 872.211 457.718 871.229 456.95 869.992C456.225 868.755 455.862 867.155 455.862 865.192C455.862 863.016 456.481 861.096 457.718 859.432C458.998 857.768 460.833 856.467 463.222 855.528C465.611 854.547 468.47 854.056 471.798 854.056C474.145 854.056 476.534 854.312 478.966 854.824C481.398 855.336 483.425 856.083 485.046 857.064L481.718 864.168C480.054 863.187 478.369 862.525 476.662 862.184C474.998 861.8 473.377 861.608 471.798 861.608C469.579 861.608 467.958 861.907 466.934 862.504C465.91 863.101 465.398 863.869 465.398 864.808C465.398 865.661 465.761 866.301 466.486 866.728C467.254 867.155 468.257 867.496 469.494 867.752C470.731 868.008 472.075 868.243 473.526 868.456C475.019 868.627 476.513 868.904 478.006 869.288C479.499 869.672 480.843 870.227 482.038 870.952C483.275 871.635 484.278 872.595 485.046 873.832C485.814 875.027 486.198 876.605 486.198 878.568C486.198 880.701 485.558 882.6 484.278 884.264C482.998 885.885 481.142 887.165 478.71 888.104C476.321 889.043 473.398 889.512 469.942 889.512ZM511.699 889V853.8C511.699 849.917 512.851 846.824 515.155 844.52C517.459 842.173 520.744 841 525.011 841C526.462 841 527.848 841.149 529.171 841.448C530.536 841.747 531.688 842.216 532.627 842.856L530.003 850.088C529.448 849.704 528.83 849.405 528.147 849.192C527.464 848.979 526.739 848.872 525.971 848.872C524.52 848.872 523.39 849.299 522.579 850.152C521.811 850.963 521.427 852.2 521.427 853.864V857.064L521.683 861.352V889H511.699ZM506.387 863.016V855.336H530.259V863.016H506.387ZM551.18 889.512C547.51 889.512 544.246 888.744 541.388 887.208C538.572 885.672 536.332 883.581 534.668 880.936C533.046 878.248 532.236 875.197 532.236 871.784C532.236 868.328 533.046 865.277 534.668 862.632C536.332 859.944 538.572 857.853 541.388 856.36C544.246 854.824 547.51 854.056 551.18 854.056C554.806 854.056 558.049 854.824 560.908 856.36C563.766 857.853 566.006 859.923 567.628 862.568C569.249 865.213 570.06 868.285 570.06 871.784C570.06 875.197 569.249 878.248 567.628 880.936C566.006 883.581 563.766 885.672 560.908 887.208C558.049 888.744 554.806 889.512 551.18 889.512ZM551.18 881.32C552.844 881.32 554.337 880.936 555.66 880.168C556.982 879.4 558.028 878.312 558.796 876.904C559.564 875.453 559.948 873.747 559.948 871.784C559.948 869.779 559.564 868.072 558.796 866.664C558.028 865.256 556.982 864.168 555.66 863.4C554.337 862.632 552.844 862.248 551.18 862.248C549.516 862.248 548.022 862.632 546.7 863.4C545.377 864.168 544.31 865.256 543.5 866.664C542.732 868.072 542.348 869.779 542.348 871.784C542.348 873.747 542.732 875.453 543.5 876.904C544.31 878.312 545.377 879.4 546.7 880.168C548.022 880.936 549.516 881.32 551.18 881.32ZM591.261 889.512C588.402 889.512 585.842 888.957 583.581 887.848C581.362 886.739 579.634 885.053 578.397 882.792C577.16 880.488 576.541 877.565 576.541 874.024V854.568H586.525V872.552C586.525 875.411 587.122 877.523 588.317 878.888C589.554 880.211 591.282 880.872 593.501 880.872C595.037 880.872 596.402 880.552 597.597 879.912C598.792 879.229 599.73 878.205 600.413 876.84C601.096 875.432 601.437 873.683 601.437 871.592V854.568H611.421V889H601.949V879.528L603.677 882.28C602.525 884.669 600.818 886.483 598.557 887.72C596.338 888.915 593.906 889.512 591.261 889.512ZM641.599 854.056C644.329 854.056 646.761 854.611 648.895 855.72C651.071 856.787 652.777 858.451 654.015 860.712C655.252 862.931 655.871 865.789 655.871 869.288V889H645.887V870.824C645.887 868.051 645.268 866.003 644.031 864.68C642.836 863.357 641.129 862.696 638.911 862.696C637.332 862.696 635.903 863.037 634.623 863.72C633.385 864.36 632.404 865.363 631.679 866.728C630.996 868.093 630.655 869.843 630.655 871.976V889H620.671V854.568H630.207V864.104L628.415 861.224C629.652 858.92 631.423 857.149 633.727 855.912C636.031 854.675 638.655 854.056 641.599 854.056ZM679.955 889.512C676.712 889.512 673.789 888.787 671.187 887.336C668.584 885.843 666.515 883.773 664.979 881.128C663.485 878.483 662.739 875.368 662.739 871.784C662.739 868.157 663.485 865.021 664.979 862.376C666.515 859.731 668.584 857.683 671.187 856.232C673.789 854.781 676.712 854.056 679.955 854.056C682.856 854.056 685.395 854.696 687.571 855.976C689.747 857.256 691.432 859.197 692.627 861.8C693.821 864.403 694.419 867.731 694.419 871.784C694.419 875.795 693.843 879.123 692.691 881.768C691.539 884.371 689.875 886.312 687.699 887.592C685.565 888.872 682.984 889.512 679.955 889.512ZM681.683 881.32C683.304 881.32 684.776 880.936 686.099 880.168C687.421 879.4 688.467 878.312 689.235 876.904C690.045 875.453 690.451 873.747 690.451 871.784C690.451 869.779 690.045 868.072 689.235 866.664C688.467 865.256 687.421 864.168 686.099 863.4C684.776 862.632 683.304 862.248 681.683 862.248C680.019 862.248 678.525 862.632 677.203 863.4C675.88 864.168 674.813 865.256 674.003 866.664C673.235 868.072 672.851 869.779 672.851 871.784C672.851 873.747 673.235 875.453 674.003 876.904C674.813 878.312 675.88 879.4 677.203 880.168C678.525 880.936 680.019 881.32 681.683 881.32ZM690.707 889V881.96L690.899 871.72L690.259 861.544V841.512H700.243V889H690.707ZM710.187 873.448L708.203 844.2H720.107L718.123 873.448H710.187ZM714.155 889.512C712.363 889.512 710.891 888.936 709.739 887.784C708.587 886.632 708.011 885.267 708.011 883.688C708.011 882.067 708.587 880.723 709.739 879.656C710.891 878.547 712.363 877.992 714.155 877.992C715.99 877.992 717.462 878.547 718.571 879.656C719.723 880.723 720.299 882.067 720.299 883.688C720.299 885.267 719.723 886.632 718.571 887.784C717.462 888.936 715.99 889.512 714.155 889.512Z" fill="#797979"/>
<defs>
<clipPath id="clip0_803_3">
<rect width="649.378" height="727.778" fill="white" transform="translate(91)"/>
</clipPath>
</defs>
</svg>
